<?xml version="1.0" encoding="UTF-8"?>
<svg width="24px" height="24px" viewBox="0 0 24 24" version="1.1" xmlns="http://www.w3.org/2000/svg" xmlns:xlink="http://www.w3.org/1999/xlink">
    <!-- Generator: Sketch 51.3 (57544) - http://www.bohemiancoding.com/sketch -->
    <title>Rectangle 5</title>
    <desc>Created with Sketch.</desc>
    <defs></defs>
    <g id="main" stroke="none" stroke-width="1" fill="none" fill-rule="evenodd">
        <g id="Widget_empty" transform="translate(-24.000000, -20.000000)" fill-rule="nonzero">
            <g id="Group-3">
                <g id="Group-30" transform="translate(24.000000, 20.000000)">
                    <rect id="Rectangle-5" x="0" y="0" width="24" height="24"></rect>
                    <g id="left-arrow-(4)" opacity="0.600000024" transform="translate(4.000000, 5.000000)" fill="#FFFFFF">
                        <path d="M15.1006179,5.41196748 L15.1255935,5.41743089 L4.41912195,5.41743089 L7.78484553,2.04429268 C7.94965854,1.87960976 8.04006504,1.65652033 8.04006504,1.42237398 C8.04006504,1.18822764 7.94965854,0.966699187 7.78484553,0.801626016 L7.26113821,0.277658537 C7.09645528,0.11297561 6.87700813,0.0219186992 6.64299187,0.0219186992 C6.40884553,0.0219186992 6.18926829,0.112325203 6.02458537,0.27700813 L0.255089431,6.04598374 C0.0897560976,6.21131707 -0.000650406504,6.43154472 8.47032947e-22,6.66582114 C-0.000650406504,6.90139837 0.0897560976,7.1217561 0.255089431,7.28682927 L6.02458537,13.0563252 C6.18926829,13.220878 6.40871545,13.3114146 6.64299187,13.3114146 C6.87700813,13.3114146 7.09645528,13.220748 7.26113821,13.0563252 L7.78484553,12.5323577 C7.94965854,12.367935 8.04006504,12.1483577 8.04006504,11.9142114 C8.04006504,11.6801951 7.94965854,11.4721951 7.78484553,11.3076423 L4.38113821,7.91564228 L15.1125854,7.91564228 C15.5947967,7.91564228 16,7.50003252 16,7.0180813 L16,6.27700813 C16,5.79505691 15.5828293,5.41196748 15.1006179,5.41196748 Z" id="Shape"></path>
                    </g>
                </g>
            </g>
        </g>
    </g>
</svg>